<svg id="Layer_2" enable-background="new 0 0 64 64" height="512" viewBox="0 0 64 64" width="512" xmlns="http://www.w3.org/2000/svg"><path d="m28 43h-24v-6c0-3.314 2.686-6 6-6h12c3.314 0 6 2.686 6 6z" fill="#6e83b7"/><path d="m18 40h4v1h-4z" fill="#466089"/><path d="m20 31-4 12-4-12z" fill="#d3d3d3"/><path d="m19 33h-3-3v-4h6z" fill="#fcb98b"/><path d="m23 23c0 3.866-3.134 7-7 7s-7-3.134-7-7v-6h14z" fill="#ffd3b3"/><path d="m23 23c1.105 0 2-.895 2-2s-.895-2-2-2z" fill="#fcb98b"/><path d="m9 23c-1.105 0-2-.895-2-2s.895-2 2-2z" fill="#fcb98b"/><path d="m17 10h-2c-1.105 0-2 .895-2 2-2.209 0-4 1.791-4 4v3 4l1-4h.764c.758 0 1.45-.428 1.789-1.106l.447-.894.828.828c.75.75 1.768 1.172 2.828 1.172h5.344l1 4v-4-3c0-3.314-2.686-6-6-6z" fill="#6e83b7"/><path d="m13 30 3 3-2 2-2-4z" fill="#edeff1"/><path d="m19 30-3 3 2 2 2-4z" fill="#edeff1"/><path d="m16 37h1l1-2-2-2-2 2 1 2z" fill="#ffb0aa"/><path d="m15 37-1 6h2 2l-1-6z" fill="#ffb0aa"/><path d="m20 31-4 12h2l1-1v-3l2-3z" fill="#8fa5d1"/><path d="m12 31 4 12h-2l-1-1v-3l-2-3z" fill="#8fa5d1"/><path d="m23 40h1v3h-1z" fill="#466089"/><path d="m8 40h1v3h-1z" fill="#466089"/><path d="m26 2h36v26h-36z" fill="#6e83b7"/><path d="m28 4h32v22h-32z" fill="#80d6fb"/><path d="m2 43h60v4h-60z" fill="#edeff1"/><path d="m4 47h56v15h-56z" fill="#edeff1"/><path d="m4 47h56v1h-56z" fill="#d3d3d3"/><path d="m38 4-3 6-3 1h-1l-1 2h-1v2h-1v-11z" fill="#98ca69"/><path d="m49 13.364c0-.47-.059-.925-.162-1.364-.245 1.053-.77 1.996-1.487 2.756-.129-3.2-2.756-5.756-5.987-5.756-.47 0-.925.059-1.364.162 1.053.245 1.996.77 2.756 1.487-3.2.129-5.756 2.756-5.756 5.987 0 .47.059.925.162 1.364.245-1.053.77-1.996 1.487-2.756.129 3.2 2.756 5.756 5.988 5.756.47 0 .925-.059 1.364-.162-1.053-.245-1.996-.77-2.756-1.487 3.199-.129 5.755-2.756 5.755-5.987z" fill="#edeff1"/><circle cx="43" cy="15" fill="#d3d3d3" r="3"/><g fill="#98ca69"><path d="m31 15 2 1-2 1-1-1z"/><path d="m29 17 2 1-1 2 1 2h-2z"/><path d="m45 26-2-2 2-1 2 1 2-2v-3l3-1 1-2 2-1 1-2-1-3 3-2 2 2v16z"/></g></svg>